STARTFONT 2.1
COMMENT 94.8.26 7-bit part (ASCII) taken from font 6x10 of X11
COMMENT         8-bit part (Thai) created by Manop Wongsaisuwan
COMMENT 2000.04.26 Theppitak Karoonboonyanan:
COMMENT            - Angkhankhu and Khomut modified
COMMENT            - charset changed from tis620.2529-1 to tis620-0
FONT -thai-fixed-medium-r-normal--10-100-75-75-C-60-tis620-0
SIZE 10 75 75
FONTBOUNDINGBOX 12 14 -6 -2
STARTPROPERTIES 23
FONTNAME_REGISTRY ""
FOUNDRY "thai"
FAMILY_NAME "fixed"
WEIGHT_NAME "medium"
SLANT "r"
SETWIDTH_NAME "normal"
ADD_STYLE_NAME ""
PIXEL_SIZE 10
POINT_SIZE 100
RESOLUTION_X 75
RESOLUTION_Y 75
SPACING "C"
AVERAGE_WIDTH 60
CHARSET_REGISTRY "tis620"
CHARSET_ENCODING "0"
COPYRIGHT "Public domain font.  Share and enjoy."
WEIGHT 196
RESOLUTION 103
X_HEIGHT 8
QUAD_WIDTH 6
DEFAULT_CHAR 32
FONT_ASCENT 12
FONT_DESCENT 2
ENDPROPERTIES
CHARS 183
STARTCHAR C040
ENCODING 32
SWIDTH 578 0
DWIDTH 6 0
BBX 6 10 0 -2
BITMAP
00
00
00
00
00
00
00
00
00
00
ENDCHAR
STARTCHAR C041
ENCODING 33
SWIDTH 578 0
DWIDTH 6 0
BBX 6 10 0 -2
BITMAP
00
10
10
10
10
10
00
10
00
00
ENDCHAR
STARTCHAR C042
ENCODING 34
SWIDTH 578 0
DWIDTH 6 0
BBX 6 10 0 -2
BITMAP
00
28
28
28
00
00
00
00
00
00
ENDCHAR
STARTCHAR C043
ENCODING 35
SWIDTH 578 0
DWIDTH 6 0
BBX 6 10 0 -2
BITMAP
00
28
28
7c
28
7c
28
28
00
00
ENDCHAR
STARTCHAR C044
ENCODING 36
SWIDTH 578 0
DWIDTH 6 0
BBX 6 10 0 -2
BITMAP
00
10
38
50
38
14
38
10
00
00
ENDCHAR
STARTCHAR C045
ENCODING 37
SWIDTH 578 0
DWIDTH 6 0
BBX 6 10 0 -2
BITMAP
00
24
54
28
10
28
54
48
00
00
ENDCHAR
STARTCHAR C046
ENCODING 38
SWIDTH 578 0
DWIDTH 6 0
BBX 6 10 0 -2
BITMAP
00
20
50
50
20
54
48
34
00
00
ENDCHAR
STARTCHAR C047
ENCODING 39
SWIDTH 578 0
DWIDTH 6 0
BBX 6 10 0 -2
BITMAP
00
18
10
20
00
00
00
00
00
00
ENDCHAR
STARTCHAR C050
ENCODING 40
SWIDTH 578 0
DWIDTH 6 0
BBX 6 10 0 -2
BITMAP
00
08
10
20
20
20
10
08
00
00
ENDCHAR
STARTCHAR C051
ENCODING 41
SWIDTH 578 0
DWIDTH 6 0
BBX 6 10 0 -2
BITMAP
00
20
10
08
08
08
10
20
00
00
ENDCHAR
STARTCHAR C052
ENCODING 42
SWIDTH 578 0
DWIDTH 6 0
BBX 6 10 0 -2
BITMAP
00
00
44
28
7c
28
44
00
00
00
ENDCHAR
STARTCHAR C053
ENCODING 43
SWIDTH 578 0
DWIDTH 6 0
BBX 6 10 0 -2
BITMAP
00
00
10
10
7c
10
10
00
00
00
ENDCHAR
STARTCHAR C054
ENCODING 44
SWIDTH 578 0
DWIDTH 6 0
BBX 6 10 0 -2
BITMAP
00
00
00
00
00
00
18
10
20
00
ENDCHAR
STARTCHAR C055
ENCODING 45
SWIDTH 578 0
DWIDTH 6 0
BBX 6 10 0 -2
BITMAP
00
00
00
00
7c
00
00
00
00
00
ENDCHAR
STARTCHAR C056
ENCODING 46
SWIDTH 578 0
DWIDTH 6 0
BBX 6 10 0 -2
BITMAP
00
00
00
00
00
00
10
38
10
00
ENDCHAR
STARTCHAR C057
ENCODING 47
SWIDTH 578 0
DWIDTH 6 0
BBX 6 10 0 -2
BITMAP
00
04
04
08
10
20
40
40
00
00
ENDCHAR
STARTCHAR C060
ENCODING 48
SWIDTH 578 0
DWIDTH 6 0
BBX 6 10 0 -2
BITMAP
00
10
28
44
44
44
28
10
00
00
ENDCHAR
STARTCHAR C061
ENCODING 49
SWIDTH 578 0
DWIDTH 6 0
BBX 6 10 0 -2
BITMAP
00
10
30
50
10
10
10
7c
00
00
ENDCHAR
STARTCHAR C062
ENCODING 50
SWIDTH 578 0
DWIDTH 6 0
BBX 6 10 0 -2
BITMAP
00
38
44
04
18
20
40
7c
00
00
ENDCHAR
STARTCHAR C063
ENCODING 51
SWIDTH 578 0
DWIDTH 6 0
BBX 6 10 0 -2
BITMAP
00
7c
04
08
18
04
44
38
00
00
ENDCHAR
STARTCHAR C064
ENCODING 52
SWIDTH 578 0
DWIDTH 6 0
BBX 6 10 0 -2
BITMAP
00
08
18
28
48
7c
08
08
00
00
ENDCHAR
STARTCHAR C065
ENCODING 53
SWIDTH 578 0
DWIDTH 6 0
BBX 6 10 0 -2
BITMAP
00
7c
40
58
64
04
44
38
00
00
ENDCHAR
STARTCHAR C066
ENCODING 54
SWIDTH 578 0
DWIDTH 6 0
BBX 6 10 0 -2
BITMAP
00
18
20
40
58
64
44
38
00
00
ENDCHAR
STARTCHAR C067
ENCODING 55
SWIDTH 578 0
DWIDTH 6 0
BBX 6 10 0 -2
BITMAP
00
7c
04
08
08
10
20
20
00
00
ENDCHAR
STARTCHAR C070
ENCODING 56
SWIDTH 578 0
DWIDTH 6 0
BBX 6 10 0 -2
BITMAP
00
38
44
44
38
44
44
38
00
00
ENDCHAR
STARTCHAR C071
ENCODING 57
SWIDTH 578 0
DWIDTH 6 0
BBX 6 10 0 -2
BITMAP
00
38
44
4c
34
04
08
30
00
00
ENDCHAR
STARTCHAR C072
ENCODING 58
SWIDTH 578 0
DWIDTH 6 0
BBX 6 10 0 -2
BITMAP
00
00
10
38
10
00
10
38
10
00
ENDCHAR
STARTCHAR C073
ENCODING 59
SWIDTH 578 0
DWIDTH 6 0
BBX 6 10 0 -2
BITMAP
00
00
10
38
10
00
18
10
20
00
ENDCHAR
STARTCHAR C074
ENCODING 60
SWIDTH 578 0
DWIDTH 6 0
BBX 6 10 0 -2
BITMAP
00
04
08
10
20
10
08
04
00
00
ENDCHAR
STARTCHAR C075
ENCODING 61
SWIDTH 578 0
DWIDTH 6 0
BBX 6 10 0 -2
BITMAP
00
00
00
7c
00
7c
00
00
00
00
ENDCHAR
STARTCHAR C076
ENCODING 62
SWIDTH 578 0
DWIDTH 6 0
BBX 6 10 0 -2
BITMAP
00
40
20
10
08
10
20
40
00
00
ENDCHAR
STARTCHAR C077
ENCODING 63
SWIDTH 578 0
DWIDTH 6 0
BBX 6 10 0 -2
BITMAP
00
38
44
08
10
10
00
10
00
00
ENDCHAR
STARTCHAR C100
ENCODING 64
SWIDTH 578 0
DWIDTH 6 0
BBX 6 10 0 -2
BITMAP
00
38
44
4c
54
58
40
38
00
00
ENDCHAR
STARTCHAR C101
ENCODING 65
SWIDTH 578 0
DWIDTH 6 0
BBX 6 10 0 -2
BITMAP
00
10
28
44
44
7c
44
44
00
00
ENDCHAR
STARTCHAR C102
ENCODING 66
SWIDTH 578 0
DWIDTH 6 0
BBX 6 10 0 -2
BITMAP
00
78
24
24
38
24
24
78
00
00
ENDCHAR
STARTCHAR C103
ENCODING 67
SWIDTH 578 0
DWIDTH 6 0
BBX 6 10 0 -2
BITMAP
00
38
44
40
40
40
44
38
00
00
ENDCHAR
STARTCHAR C104
ENCODING 68
SWIDTH 578 0
DWIDTH 6 0
BBX 6 10 0 -2
BITMAP
00
78
24
24
24
24
24
78
00
00
ENDCHAR
STARTCHAR C105
ENCODING 69
SWIDTH 578 0
DWIDTH 6 0
BBX 6 10 0 -2
BITMAP
00
7c
40
40
78
40
40
7c
00
00
ENDCHAR
STARTCHAR C106
ENCODING 70
SWIDTH 578 0
DWIDTH 6 0
BBX 6 10 0 -2
BITMAP
00
7c
40
40
78
40
40
40
00
00
ENDCHAR
STARTCHAR C107
ENCODING 71
SWIDTH 578 0
DWIDTH 6 0
BBX 6 10 0 -2
BITMAP
00
38
44
40
40
4c
44
38
00
00
ENDCHAR
STARTCHAR C110
ENCODING 72
SWIDTH 578 0
DWIDTH 6 0
BBX 6 10 0 -2
BITMAP
00
44
44
44
7c
44
44
44
00
00
ENDCHAR
STARTCHAR C111
ENCODING 73
SWIDTH 578 0
DWIDTH 6 0
BBX 6 10 0 -2
BITMAP
00
38
10
10
10
10
10
38
00
00
ENDCHAR
STARTCHAR C112
ENCODING 74
SWIDTH 578 0
DWIDTH 6 0
BBX 6 10 0 -2
BITMAP
00
1c
04
04
04
04
44
38
00
00
ENDCHAR
STARTCHAR C113
ENCODING 75
SWIDTH 578 0
DWIDTH 6 0
BBX 6 10 0 -2
BITMAP
00
44
48
50
60
50
48
44
00
00
ENDCHAR
STARTCHAR C114
ENCODING 76
SWIDTH 578 0
DWIDTH 6 0
BBX 6 10 0 -2
BITMAP
00
40
40
40
40
40
40
7c
00
00
ENDCHAR
STARTCHAR C115
ENCODING 77
SWIDTH 578 0
DWIDTH 6 0
BBX 6 10 0 -2
BITMAP
00
44
44
6c
54
44
44
44
00
00
ENDCHAR
STARTCHAR C116
ENCODING 78
SWIDTH 578 0
DWIDTH 6 0
BBX 6 10 0 -2
BITMAP
00
44
44
64
54
4c
44
44
00
00
ENDCHAR
STARTCHAR C117
ENCODING 79
SWIDTH 578 0
DWIDTH 6 0
BBX 6 10 0 -2
BITMAP
00
38
44
44
44
44
44
38
00
00
ENDCHAR
STARTCHAR C120
ENCODING 80
SWIDTH 578 0
DWIDTH 6 0
BBX 6 10 0 -2
BITMAP
00
78
44
44
78
40
40
40
00
00
ENDCHAR
STARTCHAR C121
ENCODING 81
SWIDTH 578 0
DWIDTH 6 0
BBX 6 10 0 -2
BITMAP
00
38
44
44
44
44
54
38
04
00
ENDCHAR
STARTCHAR C122
ENCODING 82
SWIDTH 578 0
DWIDTH 6 0
BBX 6 10 0 -2
BITMAP
00
78
44
44
78
50
48
44
00
00
ENDCHAR
STARTCHAR C123
ENCODING 83
SWIDTH 578 0
DWIDTH 6 0
BBX 6 10 0 -2
BITMAP
00
38
44
40
38
04
44
38
00
00
ENDCHAR
STARTCHAR C124
ENCODING 84
SWIDTH 578 0
DWIDTH 6 0
BBX 6 10 0 -2
BITMAP
00
7c
10
10
10
10
10
10
00
00
ENDCHAR
STARTCHAR C125
ENCODING 85
SWIDTH 578 0
DWIDTH 6 0
BBX 6 10 0 -2
BITMAP
00
44
44
44
44
44
44
38
00
00
ENDCHAR
STARTCHAR C126
ENCODING 86
SWIDTH 578 0
DWIDTH 6 0
BBX 6 10 0 -2
BITMAP
00
44
44
44
28
28
28
10
00
00
ENDCHAR
STARTCHAR C127
ENCODING 87
SWIDTH 578 0
DWIDTH 6 0
BBX 6 10 0 -2
BITMAP
00
44
44
44
54
54
6c
44
00
00
ENDCHAR
STARTCHAR C130
ENCODING 88
SWIDTH 578 0
DWIDTH 6 0
BBX 6 10 0 -2
BITMAP
00
44
44
28
10
28
44
44
00
00
ENDCHAR
STARTCHAR C131
ENCODING 89
SWIDTH 578 0
DWIDTH 6 0
BBX 6 10 0 -2
BITMAP
00
44
44
28
10
10
10
10
00
00
ENDCHAR
STARTCHAR C132
ENCODING 90
SWIDTH 578 0
DWIDTH 6 0
BBX 6 10 0 -2
BITMAP
00
7c
04
08
10
20
40
7c
00
00
ENDCHAR
STARTCHAR C133
ENCODING 91
SWIDTH 578 0
DWIDTH 6 0
BBX 6 10 0 -2
BITMAP
00
38
20
20
20
20
20
38
00
00
ENDCHAR
STARTCHAR C134
ENCODING 92
SWIDTH 578 0
DWIDTH 6 0
BBX 6 10 0 -2
BITMAP
00
40
40
20
10
08
04
04
00
00
ENDCHAR
STARTCHAR C135
ENCODING 93
SWIDTH 578 0
DWIDTH 6 0
BBX 6 10 0 -2
BITMAP
00
38
08
08
08
08
08
38
00
00
ENDCHAR
STARTCHAR C136
ENCODING 94
SWIDTH 578 0
DWIDTH 6 0
BBX 6 10 0 -2
BITMAP
00
10
28
44
00
00
00
00
00
00
ENDCHAR
STARTCHAR C137
ENCODING 95
SWIDTH 578 0
DWIDTH 6 0
BBX 6 10 0 -2
BITMAP
00
00
00
00
00
00
00
00
7c
00
ENDCHAR
STARTCHAR C140
ENCODING 96
SWIDTH 578 0
DWIDTH 6 0
BBX 6 10 0 -2
BITMAP
00
30
10
08
00
00
00
00
00
00
ENDCHAR
STARTCHAR C141
ENCODING 97
SWIDTH 578 0
DWIDTH 6 0
BBX 6 10 0 -2
BITMAP
00
00
00
38
04
3c
44
3c
00
00
ENDCHAR
STARTCHAR C142
ENCODING 98
SWIDTH 578 0
DWIDTH 6 0
BBX 6 10 0 -2
BITMAP
00
40
40
58
64
44
64
58
00
00
ENDCHAR
STARTCHAR C143
ENCODING 99
SWIDTH 578 0
DWIDTH 6 0
BBX 6 10 0 -2
BITMAP
00
00
00
38
44
40
44
38
00
00
ENDCHAR
STARTCHAR C144
ENCODING 100
SWIDTH 578 0
DWIDTH 6 0
BBX 6 10 0 -2
BITMAP
00
04
04
34
4c
44
4c
34
00
00
ENDCHAR
STARTCHAR C145
ENCODING 101
SWIDTH 578 0
DWIDTH 6 0
BBX 6 10 0 -2
BITMAP
00
00
00
38
44
7c
40
38
00
00
ENDCHAR
STARTCHAR C146
ENCODING 102
SWIDTH 578 0
DWIDTH 6 0
BBX 6 10 0 -2
BITMAP
00
18
24
20
78
20
20
20
00
00
ENDCHAR
STARTCHAR C147
ENCODING 103
SWIDTH 578 0
DWIDTH 6 0
BBX 6 10 0 -2
BITMAP
00
00
00
34
48
30
40
38
44
38
ENDCHAR
STARTCHAR C150
ENCODING 104
SWIDTH 578 0
DWIDTH 6 0
BBX 6 10 0 -2
BITMAP
00
40
40
58
64
44
44
44
00
00
ENDCHAR
STARTCHAR C151
ENCODING 105
SWIDTH 578 0
DWIDTH 6 0
BBX 6 10 0 -2
BITMAP
00
10
00
30
10
10
10
38
00
00
ENDCHAR
STARTCHAR C152
ENCODING 106
SWIDTH 578 0
DWIDTH 6 0
BBX 6 10 0 -2
BITMAP
00
08
00
18
08
08
08
48
48
30
ENDCHAR
STARTCHAR C153
ENCODING 107
SWIDTH 578 0
DWIDTH 6 0
BBX 6 10 0 -2
BITMAP
00
40
40
44
48
70
48
44
00
00
ENDCHAR
STARTCHAR C154
ENCODING 108
SWIDTH 578 0
DWIDTH 6 0
BBX 6 10 0 -2
BITMAP
00
30
10
10
10
10
10
38
00
00
ENDCHAR
STARTCHAR C155
ENCODING 109
SWIDTH 578 0
DWIDTH 6 0
BBX 6 10 0 -2
BITMAP
00
00
00
68
54
54
54
44
00
00
ENDCHAR
STARTCHAR C156
ENCODING 110
SWIDTH 578 0
DWIDTH 6 0
BBX 6 10 0 -2
BITMAP
00
00
00
58
64
44
44
44
00
00
ENDCHAR
STARTCHAR C157
ENCODING 111
SWIDTH 578 0
DWIDTH 6 0
BBX 6 10 0 -2
BITMAP
00
00
00
38
44
44
44
38
00
00
ENDCHAR
STARTCHAR C160
ENCODING 112
SWIDTH 578 0
DWIDTH 6 0
BBX 6 10 0 -2
BITMAP
00
00
00
58
64
64
58
40
40
40
ENDCHAR
STARTCHAR C161
ENCODING 113
SWIDTH 578 0
DWIDTH 6 0
BBX 6 10 0 -2
BITMAP
00
00
00
34
4c
4c
34
04
04
04
ENDCHAR
STARTCHAR C162
ENCODING 114
SWIDTH 578 0
DWIDTH 6 0
BBX 6 10 0 -2
BITMAP
00
00
00
58
64
40
40
40
00
00
ENDCHAR
STARTCHAR C163
ENCODING 115
SWIDTH 578 0
DWIDTH 6 0
BBX 6 10 0 -2
BITMAP
00
00
00
38
40
38
04
78
00
00
ENDCHAR
STARTCHAR C164
ENCODING 116
SWIDTH 578 0
DWIDTH 6 0
BBX 6 10 0 -2
BITMAP
00
20
20
78
20
20
24
18
00
00
ENDCHAR
STARTCHAR C165
ENCODING 117
SWIDTH 578 0
DWIDTH 6 0
BBX 6 10 0 -2
BITMAP
00
00
00
44
44
44
4c
34
00
00
ENDCHAR
STARTCHAR C166
ENCODING 118
SWIDTH 578 0
DWIDTH 6 0
BBX 6 10 0 -2
BITMAP
00
00
00
44
44
28
28
10
00
00
ENDCHAR
STARTCHAR C167
ENCODING 119
SWIDTH 578 0
DWIDTH 6 0
BBX 6 10 0 -2
BITMAP
00
00
00
44
44
54
54
28
00
00
ENDCHAR
STARTCHAR C170
ENCODING 120
SWIDTH 578 0
DWIDTH 6 0
BBX 6 10 0 -2
BITMAP
00
00
00
44
28
10
28
44
00
00
ENDCHAR
STARTCHAR C171
ENCODING 121
SWIDTH 578 0
DWIDTH 6 0
BBX 6 10 0 -2
BITMAP
00
00
00
44
44
4c
34
04
44
38
ENDCHAR
STARTCHAR C172
ENCODING 122
SWIDTH 578 0
DWIDTH 6 0
BBX 6 10 0 -2
BITMAP
00
00
00
7c
08
10
20
7c
00
00
ENDCHAR
STARTCHAR C173
ENCODING 123
SWIDTH 578 0
DWIDTH 6 0
BBX 6 10 0 -2
BITMAP
00
0c
10
08
30
08
10
0c
00
00
ENDCHAR
STARTCHAR C174
ENCODING 124
SWIDTH 578 0
DWIDTH 6 0
BBX 6 10 0 -2
BITMAP
00
10
10
10
10
10
10
10
00
00
ENDCHAR
STARTCHAR C175
ENCODING 125
SWIDTH 578 0
DWIDTH 6 0
BBX 6 10 0 -2
BITMAP
00
60
10
20
18
20
10
60
00
00
ENDCHAR
STARTCHAR C176
ENCODING 126
SWIDTH 578 0
DWIDTH 6 0
BBX 6 10 0 -2
BITMAP
00
24
54
48
00
00
00
00
00
00
ENDCHAR
STARTCHAR KO_KAI
ENCODING 161
SWIDTH 578 0
DWIDTH 6 0
BBX 6 6 0 0
BITMAP
38
44
64
24
24
24
ENDCHAR
STARTCHAR KHO_KHAI
ENCODING 162
SWIDTH 578 0
DWIDTH 6 0
BBX 6 6 0 0
BITMAP
68
68
28
48
48
30
ENDCHAR
STARTCHAR KHO_KHUAT
ENCODING 163
SWIDTH 578 0
DWIDTH 6 0
BBX 6 6 0 0
BITMAP
54
74
14
24
24
18
ENDCHAR
STARTCHAR KHO_KHWAI
ENCODING 164
SWIDTH 578 0
DWIDTH 6 0
BBX 6 6 0 0
BITMAP
38
44
74
74
64
24
ENDCHAR
STARTCHAR KHO_KHON
ENCODING 165
SWIDTH 578 0
DWIDTH 6 0
BBX 6 6 0 0
BITMAP
28
54
74
74
64
24
ENDCHAR
STARTCHAR KHO_RAKHANG
ENCODING 166
SWIDTH 578 0
DWIDTH 6 0
BBX 6 6 0 0
BITMAP
54
74
14
24
74
68
ENDCHAR
STARTCHAR NGO_NGU
ENCODING 167
SWIDTH 578 0
DWIDTH 6 0
BBX 6 6 0 0
BITMAP
18
18
08
48
28
18
ENDCHAR
STARTCHAR CHO_CHAN
ENCODING 168
SWIDTH 578 0
DWIDTH 6 0
BBX 6 6 0 0
BITMAP
38
44
34
34
14
18
ENDCHAR
STARTCHAR CHO_CHING
ENCODING 169
SWIDTH 578 0
DWIDTH 6 0
BBX 6 6 0 0
BITMAP
70
08
68
68
3c
2c
ENDCHAR
STARTCHAR CHO_CHANG
ENCODING 170
SWIDTH 578 0
DWIDTH 6 0
BBX 6 7 0 0
BITMAP
08
68
70
28
48
48
30
ENDCHAR
STARTCHAR SO_SO
ENCODING 171
SWIDTH 578 0
DWIDTH 6 0
BBX 6 7 0 0
BITMAP
04
54
78
14
24
24
18
ENDCHAR
STARTCHAR CHO_CHOE
ENCODING 172
SWIDTH 578 0
DWIDTH 6 0
BBX 6 6 0 0
BITMAP
34
54
34
54
7c
74
ENDCHAR
STARTCHAR YO_YING
ENCODING 173
SWIDTH 578 0
DWIDTH 6 0
BBX 6 6 0 0
BITMAP
34
54
34
5c
70
7c
ENDCHAR
STARTCHAR DO_CHADA
ENCODING 174
SWIDTH 578 0
DWIDTH 6 0
BBX 6 8 0 -2
BITMAP
38
44
24
24
64
6c
1c
24
ENDCHAR
STARTCHAR TO_PATAK
ENCODING 175
SWIDTH 578 0
DWIDTH 6 0
BBX 6 8 0 -2
BITMAP
38
44
24
24
64
6c
54
28
ENDCHAR
STARTCHAR THO_THAN
ENCODING 176
SWIDTH 578 0
DWIDTH 6 0
BBX 6 8 0 -2
BITMAP
3c
40
38
34
34
0c
54
2c
ENDCHAR
STARTCHAR THO_NANGMONTHO
ENCODING 177
SWIDTH 578 0
DWIDTH 6 0
BBX 6 6 0 0
BITMAP
54
7c
14
24
24
24
ENDCHAR
STARTCHAR THO_PHUTHAO
ENCODING 178
SWIDTH 578 0
DWIDTH 6 0
BBX 6 6 0 0
BITMAP
54
74
54
54
7c
74
ENDCHAR
STARTCHAR NO_NEN
ENCODING 179
SWIDTH 578 0
DWIDTH 6 0
BBX 6 6 0 0
BITMAP
34
54
34
58
5c
7c
ENDCHAR
STARTCHAR DO_DEK
ENCODING 180
SWIDTH 578 0
DWIDTH 6 0
BBX 6 6 0 0
BITMAP
38
44
74
74
54
24
ENDCHAR
STARTCHAR TO_TAO
ENCODING 181
SWIDTH 578 0
DWIDTH 6 0
BBX 6 6 0 0
BITMAP
28
54
74
74
54
24
ENDCHAR
STARTCHAR THO_THUNG
ENCODING 182
SWIDTH 578 0
DWIDTH 6 0
BBX 6 6 0 0
BITMAP
38
44
64
24
34
34
ENDCHAR
STARTCHAR THO_THAHAN
ENCODING 183
SWIDTH 578 0
DWIDTH 6 0
BBX 6 6 0 0
BITMAP
68
74
24
24
24
24
ENDCHAR
STARTCHAR THO_THONG
ENCODING 184
SWIDTH 578 0
DWIDTH 6 0
BBX 6 6 0 0
BITMAP
3c
40
78
24
24
18
ENDCHAR
STARTCHAR NO_NU
ENCODING 185
SWIDTH 578 0
DWIDTH 6 0
BBX 6 6 0 0
BITMAP
68
68
28
48
5c
2c
ENDCHAR
STARTCHAR BO_BAIMAI
ENCODING 186
SWIDTH 578 0
DWIDTH 6 0
BBX 6 6 0 0
BITMAP
64
64
24
24
24
18
ENDCHAR
STARTCHAR PO_PLA
ENCODING 187
SWIDTH 578 0
DWIDTH 6 0
BBX 6 8 0 0
BITMAP
04
04
64
64
24
24
24
18
ENDCHAR
STARTCHAR PHO_PHUNG
ENCODING 188
SWIDTH 578 0
DWIDTH 6 0
BBX 6 6 0 0
BITMAP
64
64
44
54
54
28
ENDCHAR
STARTCHAR FO_FA
ENCODING 189
SWIDTH 578 0
DWIDTH 6 0
BBX 6 8 0 0
BITMAP
04
04
64
64
44
54
54
28
ENDCHAR
STARTCHAR PHO_PHAN
ENCODING 190
SWIDTH 578 0
DWIDTH 6 0
BBX 6 6 0 0
BITMAP
64
64
24
54
54
28
ENDCHAR
STARTCHAR FO_FAN
ENCODING 191
SWIDTH 578 0
DWIDTH 6 0
BBX 6 8 0 0
BITMAP
04
04
64
64
24
54
54
28
ENDCHAR
STARTCHAR PHO_SAMPHAO
ENCODING 192
SWIDTH 578 0
DWIDTH 6 0
BBX 6 6 0 0
BITMAP
38
44
64
24
64
64
ENDCHAR
STARTCHAR MO_MA
ENCODING 193
SWIDTH 578 0
DWIDTH 6 0
BBX 6 6 0 0
BITMAP
64
64
24
24
74
68
ENDCHAR
STARTCHAR YO_YAK
ENCODING 194
SWIDTH 578 0
DWIDTH 6 0
BBX 6 6 0 0
BITMAP
64
64
44
34
44
38
ENDCHAR
STARTCHAR RO_RUA
ENCODING 195
SWIDTH 578 0
DWIDTH 6 0
BBX 6 6 0 0
BITMAP
38
44
70
08
18
18
ENDCHAR
STARTCHAR RU
ENCODING 196
SWIDTH 578 0
DWIDTH 6 0
BBX 6 8 0 -2
BITMAP
38
44
64
24
34
34
04
04
ENDCHAR
STARTCHAR LO_LING
ENCODING 197
SWIDTH 578 0
DWIDTH 6 0
BBX 6 6 0 0
BITMAP
38
44
34
4c
64
64
ENDCHAR
STARTCHAR LU
ENCODING 198
SWIDTH 578 0
DWIDTH 6 0
BBX 6 8 0 -2
BITMAP
38
44
64
24
64
64
04
04
ENDCHAR
STARTCHAR WO_WAEN
ENCODING 199
SWIDTH 578 0
DWIDTH 6 0
BBX 6 6 0 0
BITMAP
38
44
04
04
0c
0c
ENDCHAR
STARTCHAR SO_SALA
ENCODING 200
SWIDTH 578 0
DWIDTH 6 0
BBX 6 8 0 0
BITMAP
04
04
38
44
74
74
64
24
ENDCHAR
STARTCHAR SO_RUSI
ENCODING 201
SWIDTH 578 0
DWIDTH 6 0
BBX 6 6 0 0
BITMAP
68
68
38
5c
48
38
ENDCHAR
STARTCHAR SO_SUA
ENCODING 202
SWIDTH 578 0
DWIDTH 6 0
BBX 6 8 0 0
BITMAP
04
04
38
44
34
4c
64
64
ENDCHAR
STARTCHAR HO_HIP
ENCODING 203
SWIDTH 578 0
DWIDTH 6 0
BBX 6 6 0 0
BITMAP
6c
6c
28
34
24
24
ENDCHAR
STARTCHAR LO_CHULA
ENCODING 204
SWIDTH 578 0
DWIDTH 6 0
BBX 6 8 0 0
BITMAP
04
04
68
64
24
54
54
28
ENDCHAR
STARTCHAR O_ANG
ENCODING 205
SWIDTH 578 0
DWIDTH 6 0
BBX 6 6 0 0
BITMAP
78
04
64
64
44
38
ENDCHAR
STARTCHAR HO_NOK_HUK
ENCODING 206
SWIDTH 578 0
DWIDTH 6 0
BBX 6 8 0 0
BITMAP
04
04
78
04
64
64
44
38
ENDCHAR
STARTCHAR PAI_YAN_NOI
ENCODING 207
SWIDTH 578 0
DWIDTH 6 0
BBX 6 6 0 0
BITMAP
6c
74
04
04
04
08
ENDCHAR
STARTCHAR SARA_A
ENCODING 208
SWIDTH 578 0
DWIDTH 6 0
BBX 6 6 0 0
BITMAP
00
68
70
00
68
70
ENDCHAR
STARTCHAR MAI_HAN-AKAT
ENCODING 209
SWIDTH 0 0
DWIDTH 0 0
BBX 6 2 -6 7
BITMAP
20
3c
ENDCHAR
STARTCHAR SARA_AA
ENCODING 210
SWIDTH 578 0
DWIDTH 6 0
BBX 6 6 0 0
BITMAP
38
44
04
04
04
04
ENDCHAR
STARTCHAR SARA_AM
ENCODING 211
SWIDTH 578 0
DWIDTH 6 0
BBX 6 8 0 0
BITMAP
60
60
18
24
04
04
04
04
ENDCHAR
STARTCHAR SARA_I
ENCODING 212
SWIDTH 0 0
DWIDTH 0 0
BBX 6 2 -6 7
BITMAP
00
3c
ENDCHAR
STARTCHAR SARA_II
ENCODING 213
SWIDTH 0 0
DWIDTH 0 0
BBX 6 2 -6 7
BITMAP
04
3c
ENDCHAR
STARTCHAR SARA_UE
ENCODING 214
SWIDTH 0 0
DWIDTH 0 0
BBX 6 2 -6 7
BITMAP
0c
3c
ENDCHAR
STARTCHAR SARA_UEE
ENCODING 215
SWIDTH 0 0
DWIDTH 0 0
BBX 6 2 -6 7
BITMAP
14
3c
ENDCHAR
STARTCHAR SARA_U
ENCODING 216
SWIDTH 0 0
DWIDTH 0 0
BBX 6 2 -6 -2
BITMAP
0c
04
ENDCHAR
STARTCHAR SARA_UU
ENCODING 217
SWIDTH 0 0
DWIDTH 0 0
BBX 6 2 -6 -2
BITMAP
1c
0c
ENDCHAR
STARTCHAR PHINTHU
ENCODING 218
SWIDTH 0 0
DWIDTH 0 0
BBX 6 2 -6 -2
BITMAP
0c
0c
ENDCHAR
STARTCHAR MAI_HAN-AKAT_MAI_THO
ENCODING 219
SWIDTH 0 0
DWIDTH 0 0
BBX 6 4 -6 7
BITMAP
34
18
20
3c
ENDCHAR
STARTCHAR BAHT
ENCODING 223
SWIDTH 578 0
DWIDTH 6 0
BBX 6 10 0 -2
BITMAP
10
78
54
54
78
54
54
78
10
00
ENDCHAR
STARTCHAR SARA_E
ENCODING 224
SWIDTH 578 0
DWIDTH 6 0
BBX 6 6 0 0
BITMAP
20
20
20
20
30
30
ENDCHAR
STARTCHAR SARA_AE
ENCODING 225
SWIDTH 578 0
DWIDTH 6 0
BBX 6 6 0 0
BITMAP
48
48
48
48
6c
6c
ENDCHAR
STARTCHAR SARA_O
ENCODING 226
SWIDTH 578 0
DWIDTH 6 0
BBX 6 8 0 0
BITMAP
3c
40
78
08
08
08
0c
0c
ENDCHAR
STARTCHAR SARA_MAI_MUAN
ENCODING 227
SWIDTH 578 0
DWIDTH 6 0
BBX 6 8 0 0
BITMAP
38
48
58
38
08
08
0c
0c
ENDCHAR
STARTCHAR SARA_MAI_MALAI
ENCODING 228
SWIDTH 578 0
DWIDTH 6 0
BBX 6 8 0 0
BITMAP
58
28
08
08
08
08
0c
0c
ENDCHAR
STARTCHAR LAK_KHANG_YAO
ENCODING 229
SWIDTH 578 0
DWIDTH 6 0
BBX 6 8 0 -2
BITMAP
38
44
04
04
04
04
04
04
ENDCHAR
STARTCHAR MAI_YAMOK
ENCODING 230
SWIDTH 578 0
DWIDTH 6 0
BBX 6 8 0 -2
BITMAP
74
6c
04
04
04
04
08
10
ENDCHAR
STARTCHAR MAI_TAI_KHU
ENCODING 231
SWIDTH 0 0
DWIDTH 0 0
BBX 6 3 -6 7
BITMAP
3c
30
2c
ENDCHAR
STARTCHAR MAI_EK
ENCODING 232
SWIDTH 0 0
DWIDTH 0 0
BBX 6 2 -6 9
BITMAP
04
04
ENDCHAR
STARTCHAR MAI_THO
ENCODING 233
SWIDTH 0 0
DWIDTH 0 0
BBX 6 2 -6 9
BITMAP
34
18
ENDCHAR
STARTCHAR MAI_TRI
ENCODING 234
SWIDTH 0 0
DWIDTH 0 0
BBX 7 2 -6 9
BITMAP
2a
3c
ENDCHAR
STARTCHAR MAI_CHATTAWA
ENCODING 235
SWIDTH 0 0
DWIDTH 0 0
BBX 6 3 -6 8
BITMAP
08
1c
08
ENDCHAR
STARTCHAR THANTHAKHAT
ENCODING 236
SWIDTH 0 0
DWIDTH 0 0
BBX 6 3 -6 8
BITMAP
0c
08
00
ENDCHAR
STARTCHAR NIKKHAHIT
ENCODING 237
SWIDTH 0 0
DWIDTH 0 0
BBX 6 2 -6 9
BITMAP
0c
0c
ENDCHAR
STARTCHAR YAMAKKAN
ENCODING 238
SWIDTH 0 0
DWIDTH 0 0
BBX 6 3 -6 7
BITMAP
0c
1c
18
ENDCHAR
STARTCHAR FONGMAN
ENCODING 239
SWIDTH 578 0
DWIDTH 6 0
BBX 6 5 0 0
BITMAP
38
44
54
44
38
ENDCHAR
STARTCHAR ZERO
ENCODING 240
SWIDTH 578 0
DWIDTH 6 0
BBX 6 5 0 0
BITMAP
38
44
44
44
38
ENDCHAR
STARTCHAR ONE
ENCODING 241
SWIDTH 578 0
DWIDTH 6 0
BBX 6 5 0 0
BITMAP
38
54
74
04
38
ENDCHAR
STARTCHAR TWO
ENCODING 242
SWIDTH 578 0
DWIDTH 6 0
BBX 6 7 0 0
BITMAP
40
40
54
5c
5c
44
38
ENDCHAR
STARTCHAR THREE
ENCODING 243
SWIDTH 578 0
DWIDTH 6 0
BBX 6 5 0 0
BITMAP
28
54
44
64
64
ENDCHAR
STARTCHAR FOUR
ENCODING 244
SWIDTH 578 0
DWIDTH 6 0
BBX 6 7 0 0
BITMAP
04
04
38
40
58
58
3c
ENDCHAR
STARTCHAR FIVE
ENCODING 245
SWIDTH 578 0
DWIDTH 6 0
BBX 6 7 0 0
BITMAP
04
34
38
40
58
58
3c
ENDCHAR
STARTCHAR SIX
ENCODING 246
SWIDTH 578 0
DWIDTH 6 0
BBX 6 7 0 0
BITMAP
00
40
28
14
04
34
38
ENDCHAR
STARTCHAR SEVEN
ENCODING 247
SWIDTH 578 0
DWIDTH 6 0
BBX 6 7 0 0
BITMAP
04
04
54
74
54
54
68
ENDCHAR
STARTCHAR EIGHT
ENCODING 248
SWIDTH 578 0
DWIDTH 6 0
BBX 6 7 0 0
BITMAP
00
04
38
40
4c
54
6c
ENDCHAR
STARTCHAR NINE
ENCODING 249
SWIDTH 578 0
DWIDTH 6 0
BBX 6 7 0 0
BITMAP
04
04
18
30
50
68
64
ENDCHAR
STARTCHAR ANGKHANKHU
ENCODING 250
SWIDTH 578 0
DWIDTH 6 0
BBX 6 6 0 0
BITMAP
54
74
14
14
14
28
ENDCHAR
STARTCHAR KHOMUT
ENCODING 251
SWIDTH 578 0
DWIDTH 6 0
BBX 6 6 0 0
BITMAP
60
60
54
58
50
20
ENDCHAR
ENDFONT
